<mxfile host="app.diagrams.net" agent="Mozilla/5.0 (X11; Ubuntu; Linux x86_64; rv:132.0) Gecko/20100101 Firefox/132.0" version="24.9.0">
  <diagram name="Page-1" id="Hx9mnejw7xzNuSzXZtO_">
    <mxGraphModel dx="1274" dy="795" grid="1" gridSize="10" guides="1" tooltips="1" connect="1" arrows="1" fold="1" page="1" pageScale="1" pageWidth="826" pageHeight="1169" math="0" shadow="0">
      <root>
        <mxCell id="0" />
        <mxCell id="1" parent="0" />
        <mxCell id="m087Nysx9C7lL1qlAfmV-1" value="" style="shape=mxgraph.bpmn.conversation;perimeter=hexagonPerimeter2;whiteSpace=wrap;html=1;aspect=fixed;bpmnConversationType=conv;" vertex="1" parent="1">
          <mxGeometry x="120" y="200" width="315" height="270" as="geometry" />
        </mxCell>
        <mxCell id="m087Nysx9C7lL1qlAfmV-2" value="" style="shape=mxgraph.bpmn.conversation;perimeter=hexagonPerimeter2;whiteSpace=wrap;html=1;aspect=fixed;bpmnConversationType=conv;" vertex="1" parent="1">
          <mxGeometry x="650" y="200" width="315" height="270" as="geometry" />
        </mxCell>
      </root>
    </mxGraphModel>
  </diagram>
</mxfile>
